#!OML:ASF F:\VICON\USERDATA\INSTALL\Justin_Nancy\Justin_Nancy.ASF
:FULLY-SPECIFIED
:DEGREES
112
root -8.12934 16.6634 -4.2329 -3.35944 18.5231 -1.88002
lowerback 8.95014 -1.26487 -3.2661
upperback 0.101943 -1.81839 3.96742
thorax -4.6887 -0.779297 6.24912
lowerneck -16.1096 -3.15888 -7.43039
upperneck 20.4147 -3.07584 2.81648
head 9.25493 -1.69912 1.81148
rclavicle 3.43649e-014 1.03368e-014
rhumerus -37.4163 -17.0236 -71.8922
rradius 23.6286
rwrist 14.0455
rhand -21.7033 7.76946
rfingers 7.12502
rthumb 4.69529 -22.1585
lclavicle 3.43649e-014 1.03368e-014
lhumerus -31.4962 2.28929 89.614
lradius 34.1358
lwrist 1.72464
lhand -17.7066 27.9962
lfingers 7.12502
lthumb 8.55353 57.8029
rfemur -27.0296 -0.778826 13.8566
rtibia 43.4763
rfoot -7.5533 -5.04248
rtoes -11.0233
lfemur -2.84081 -2.0427 -27.6356
ltibia 61.5299
lfoot -9.60699 9.01523
ltoes 4.74023
113
root -8.09498 16.7082 -4.04542 -3.18586 20.7471 -2.36667
lowerback 8.54689 -1.12343 -2.61808
upperback 0.056122 -1.56692 3.76371
thorax -4.56489 -0.673522 5.61455
lowerneck -15.8358 -3.40634 -6.77608
upperneck 20.2795 -3.51475 2.42069
head 9.16108 -1.89558 1.51291
rclavicle -2.75068e-014 7.95139e-016
rhumerus -37.8365 -17.3874 -72.2611
rradius 24.1024
rwrist 13.584
rhand -21.1285 6.64122
rfingers 7.12502
rthumb 5.2503 -23.2737
lclavicle -2.75068e-014 7.95139e-016
lhumerus -31.6864 0.718707 90.1886
lradius 34.3791
lwrist 0.826803
lhand -17.0661 27.9819
lfingers 7.12502
lthumb 9.17157 57.7624
rfemur -25.794 -1.01726 14.0839
rtibia 43.1048
rfoot -8.10022 -6.73317
rtoes -10.0165
lfemur -4.87206 -2.12929 -26.7304
ltibia 62.1341
lfoot -10.8349 7.75517
ltoes 6.12308
114
root -8.05864 16.7515 -3.86939 -3.13461 22.9737 -2.87862
lowerback 8.27521 -1.25026 -2.1747
upperback 0.321975 -1.68285 3.9876
thorax -4.12669 -0.752796 5.59338
lowerneck -16.9347 -3.57764 -7.47709
upperneck 20.528 -3.50023 2.51481
head 9.46754 -1.92663 1.64983
rclavicle -4.28132e-014 4.77083e-015
rhumerus -36.8489 -16.499 -72.8045
rradius 24.2232
rwrist 12.7806
rhand -21.2594 6.96092
rfingers 7.12502
rthumb 5.12386 -22.9571
lclavicle -4.28132e-014 4.77083e-015
lhumerus -31.1676 0.711386 90.8041
lradius 34.3088
lwrist -0.839051
lhand -16.6349 26.6872
lfingers 7.12502
lthumb 9.58761 56.449
rfemur -24.3999 -1.25938 14.3847
rtibia 42.6149
rfoot -8.64864 -8.49377
rtoes -10.8211
lfemur -6.90229 -2.11725 -25.9235
ltibia 62.6729
lfoot -12.3929 7.14906
ltoes 3.8834
115
root -8.02612 16.7962 -3.71039 -3.25347 25.038 -3.70875
lowerback 8.25833 -1.21109 -1.42092
upperback 0.316434 -1.54857 4.14451
thorax -4.15366 -0.696806 5.31294
lowerneck -16.9367 -3.83696 -7.92474
upperneck 20.5796 -3.77082 2.66692
head 9.51536 -2.06967 1.73955
rclavicle 3.27249e-014 -3.18055e-015
rhumerus -36.7618 -15.3321 -73.4679
rradius 24.8717
rwrist 11.5443
rhand -21.4723 7.38447
rfingers 7.12502
rthumb 4.91828 -22.5385
lclavicle 3.27249e-014 -3.18055e-015
lhumerus -31.1939 0.193606 91.288
lradius 33.9506
lwrist -1.79987
lhand -16.7642 26.9833
lfingers 7.12502
lthumb 9.46284 56.7508
rfemur -23.1557 -1.16054 15.0467
rtibia 42.0469
rfoot -8.99661 -10.3044
rtoes -11.1278
lfemur -9.01148 -1.96037 -24.86
ltibia 63.1033
lfoot -14.2608 6.78549
ltoes 1.79084
116
root -7.99673 16.8406 -3.55265 -3.40787 27.1141 -4.62853
lowerback 8.29661 -1.06662 -0.554196
upperback 0.163911 -1.26132 4.22114
thorax -4.38066 -0.562845 4.87182
lowerneck -16.6215 -4.06248 -7.83358
upperneck 20.7815 -4.12993 2.64873
head 9.54651 -2.23417 1.67426
rclavicle -6.90777e-014 6.36111e-015
rhumerus -37.6892 -14.4031 -73.9734
rradius 26.2147
rwrist 10.639
rhand -21.7618 7.99761
rfingers 7.12502
rthumb 4.63874 -21.9316
lclavicle -6.90777e-014 6.36111e-015
lhumerus -31.6684 -1.13777 91.8626
lradius 34.1936
lwrist -1.80608
lhand -16.6039 27.2861
lfingers 7.12502
lthumb 9.61752 57.0466
rfemur -22.0095 -0.942974 15.7962
rtibia 41.4688
rfoot -9.12486 -11.9942
rtoes -11.5976
lfemur -11.1796 -1.78209 -23.7763
ltibia 63.3434
lfoot -15.8413 6.0198
ltoes 2.83321
117
root -7.96154 16.8888 -3.38258 -3.35185 29.427 -4.87507
lowerback 8.38463 -1.06728 -0.320465
upperback 0.0579941 -1.23449 4.18195
thorax -4.54894 -0.550315 4.69969
lowerneck -16.297 -3.76931 -7.4061
upperneck 20.7979 -3.84443 2.59029
head 9.46329 -2.07476 1.6276
rclavicle -5.86415e-015 1.59028e-014
rhumerus -38.3337 -12.7789 -74.7336
rradius 27.4853
rwrist 9.33249
rhand -22.0535 8.54779
rfingers 7.12502
rthumb 4.35711 -21.3874
lclavicle -5.86415e-015 1.59028e-014
lhumerus -31.8453 -1.7618 92.2843
lradius 34.3235
lwrist -2.08459
lhand -16.1557 27.0933
lfingers 7.12502
lthumb 10.05 56.8333
rfemur -20.7786 -0.876024 15.7804
rtibia 40.9882
rfoot -9.21197 -13.2454
rtoes -12.2077
lfemur -13.0871 -1.80818 -23.5298
ltibia 63.2298
lfoot -13.6394 6.94254
ltoes 13.6213
118
root -7.91719 16.935 -3.20777 -3.3453 31.8502 -4.79157
lowerback 8.61428 -1.14825 -0.334008
upperback 0.0133873 -1.34106 4.08935
thorax -4.71764 -0.60032 4.63129
lowerneck -15.6346 -3.37964 -7.09352
upperneck 20.4022 -3.39916 2.46814
head 9.16939 -1.855 1.6003
rclavicle 3.97818e-014 -2.22639e-014
rhumerus -38.2982 -11.1666 -75.39
rradius 28.3478
rwrist 8.0025
rhand -22.6026 9.38967
rfingers 7.12502
rthumb 3.82691 -20.5557
lclavicle 3.97818e-014 -2.22639e-014
lhumerus -31.7139 -1.37004 92.4441
lradius 33.8923
lwrist -2.89907
lhand -15.32 26.8112
lfingers 7.12502
lthumb 10.8561 56.5106
rfemur -19.2474 -0.897552 15.3388
rtibia 40.6262
rfoot -9.22054 -13.6611
rtoes -13.3446
lfemur -14.6626 -1.85062 -23.7471
ltibia 62.8532
lfoot -15.8789 6.39944
ltoes 9.08831
